<svg xmlns="http://www.w3.org/2000/svg" version="1.1" xmlns:xlink="http://www.w3.org/1999/xlink" xmlns:svgjs="http://svgjs.com/svgjs" width="1440" height="560" preserveAspectRatio="none" viewBox="0 0 1440 560"><g mask="url(&quot;#SvgjsMask1012&quot;)" fill="none"><rect width="1440" height="560" x="0" y="0" fill="#0e2a47"></rect><path d="M777.3255523013792 345.84116350780414L762.544598906607 262.01421124341607 678.7176466422189 276.7951646381882 693.4986000369911 360.6221169025763z" fill="rgba(28, 83, 142, 0.4)" class="triangle-float1"></path><path d="M-2.8586277318059725 507.54863669526253L80.29857621548932 590.864493065276 108.66187987910064 491.9498981937522z" fill="rgba(28, 83, 142, 0.4)" class="triangle-float1"></path><path d="M962.2676116463266 340.3798530786725L1013.8466329129922 219.18854580298358 899.3414268155323 231.2235279237958z" fill="rgba(28, 83, 142, 0.4)" class="triangle-float2"></path><path d="M79.909373589712-2.84200782750759L-5.837799764574214-22.638302633941716-25.634094571008347 63.1088707203445 60.11307878327788 82.90516552677863z" fill="rgba(28, 83, 142, 0.4)" class="triangle-float1"></path><path d="M804.581,612.528C858.73,615.822,916.442,598.074,943.399,550.996C970.232,504.135,953.916,446.965,925.77,400.88C899.015,357.072,855.911,324.197,804.581,323.697C752.436,323.189,703.65,352.403,679.233,398.48C656.173,441.997,667.341,493.218,692.228,535.716C716.799,577.675,756.047,609.575,804.581,612.528" fill="rgba(28, 83, 142, 0.4)" class="triangle-float2"></path><path d="M458.2453453202766 306.82548788253274L442.5871456828473 434.3512901681435 585.7711476058873 322.4836875199621z" fill="rgba(28, 83, 142, 0.4)" class="triangle-float2"></path><path d="M878.535,15.947C894.594,15.585,903.333,-1.033,911.02,-15.137C918.243,-28.39,924.683,-43.159,918.171,-56.776C910.84,-72.104,895.526,-83.17,878.535,-83.061C861.7,-82.953,847.365,-71.298,839.767,-56.275C832.863,-42.624,836.177,-27.092,843.412,-13.614C851.169,0.837,862.138,16.316,878.535,15.947" fill="rgba(28, 83, 142, 0.4)" class="triangle-float3"></path><path d="M1259.8012966553642 415.80692136095206L1147.357009352897 500.5397694686484 1232.0898574605933 612.9840567711155 1344.5341447630606 528.2512086634192z" fill="rgba(28, 83, 142, 0.4)" class="triangle-float3"></path><path d="M287.0035555920245 338.5692829021802L428.6336168799373 413.87532229575663 503.9396562735137 272.24526100784385 362.30959498560094 196.9392216142674z" fill="rgba(28, 83, 142, 0.4)" class="triangle-float1"></path><path d="M1257.87796479951 284.8051015728746L1267.5288697788433 174.49475289011474 1157.2185210960834 164.84384791078142 1147.56761611675 275.1541965935413z" fill="rgba(28, 83, 142, 0.4)" class="triangle-float3"></path><path d="M546.633454915436 190.4566808925769L593.6970313580453 282.82415044548657 686.064500910955 235.7605740028773 639.0009244683457 143.3931044499676z" fill="rgba(28, 83, 142, 0.4)" class="triangle-float3"></path><path d="M1027.9153541995872 174.42007107072203L892.8289093782289 179.1373936717884 1032.6326768006536 309.5065158920803z" fill="rgba(28, 83, 142, 0.4)" class="triangle-float1"></path><path d="M1203.161045852626 119.84836509106611L1309.6158179275383 142.4760254166752 1332.2434782531473 36.021253341763114 1225.7887061782353 13.393593016154z" fill="rgba(28, 83, 142, 0.4)" class="triangle-float1"></path><path d="M388.30447367567274 296.43339960723114L530.3979060532547 306.3695403315062 398.2406143999478 154.33996722964923z" fill="rgba(28, 83, 142, 0.4)" class="triangle-float3"></path><path d="M541.3602911363638 456.72403171877335L397.2742105096467 482.13029527779884 422.6804740686722 626.2163759045159 566.7665546953892 600.8101123454904z" fill="rgba(28, 83, 142, 0.4)" class="triangle-float1"></path><path d="M588.316,632.779C637.129,632.997,688.521,620.05,713.545,578.139C739.078,535.376,727.841,482.778,703.983,439.058C678.859,393.019,640.72,350.796,588.316,348.657C532.786,346.39,481.45,379.992,455.046,428.895C429.846,475.568,435.989,532.629,465.01,577.028C491.462,617.496,539.97,632.563,588.316,632.779" fill="rgba(28, 83, 142, 0.4)" class="triangle-float3"></path></g><defs><mask id="SvgjsMask1012"><rect width="1440" height="560" fill="#ffffff"></rect></mask><style>
            @keyframes float1 {
                0%{transform: translate(0, 0)}
                50%{transform: translate(-10px, 0)}
                100%{transform: translate(0, 0)}
            }

            .triangle-float1 {
                animation: float1 5s infinite;
            }

            @keyframes float2 {
                0%{transform: translate(0, 0)}
                50%{transform: translate(-5px, -5px)}
                100%{transform: translate(0, 0)}
            }

            .triangle-float2 {
                animation: float2 4s infinite;
            }

            @keyframes float3 {
                0%{transform: translate(0, 0)}
                50%{transform: translate(0, -10px)}
                100%{transform: translate(0, 0)}
            }

            .triangle-float3 {
                animation: float3 6s infinite;
            }
        </style></defs></svg>