<svg xmlns="http://www.w3.org/2000/svg" version="1.1" xmlns:xlink="http://www.w3.org/1999/xlink" xmlns:svgjs="http://svgjs.com/svgjs" width="1440" height="560" preserveAspectRatio="none" viewBox="0 0 1440 560"><g mask="url(&quot;#SvgjsMask1000&quot;)" fill="none"><rect width="1440" height="560" x="0" y="0" fill="#0e2a47"></rect><path d="M0 526.32L10 511.5L20 512.98L30 528.26L40 461.51L50 525.03L60 484.05L70 499.94L80 464.88L90 522.91L100 460.08L110 529.38L120 479.85L130 488.4L140 537.28L150 541.78L160 548.83L170 489.49L180 537.4L190 487.05L200 529.27L210 522.52L220 487.26L230 535.56L240 523.04L250 465.73L260 529.65L270 467.11L280 482.35L290 514.2L300 525.8L310 509.31L320 447.08L330 481.32L340 513.86L350 552.36L360 544L370 557.75L380 527.22L390 527.61L400 475.57L410 497.95L420 500.47L430 533.77L440 531.36L450 517.57L460 471.13L470 507.7L480 549.11L490 479.39L500 454.02L510 460.32L520 398.43L530 441.85L540 500.34L550 522.43L560 460L570 499.81L580 510.88L590 533.83L600 515.09L610 522.62L620 470.51L630 512.47L640 485.98L650 540.29L660 531.37L670 540.09L680 552.3L690 531.29L700 492.53L710 505.61L720 514.69L730 485.13L740 544.96L750 489.05L760 525.02L770 526.8L780 507.94L790 493.06L800 512.87L810 485.32L820 460.89L830 463.15L840 430.2L850 366.5L860 337.55L870 280.1L880 330.39L890 262.8L900 235.7L910 206.43L920 232.2L930 248.87L940 303.78L950 278.33L960 267.08L970 268.58L980 323.26L990 271.78L1000 304.49L1010 293.48L1020 247.33L1030 243.95L1040 215.2L1050 175.75L1060 122.85L1070 84.16L1080 139.81L1090 165.43L1100 140.39L1110 174.88L1120 151.83L1130 214.42L1140 179.23L1150 155.47L1160 169.23L1170 196.52L1180 164.62L1190 181.92L1200 138.07L1210 149.5L1220 212.3L1230 164.44L1240 96.36L1250 85.05L1260 36.71L1270 50.75L1280 69.81L1290 92.64L1300 108.08L1310 163.91L1320 191.14L1330 216.29L1340 190.9L1350 214.8L1360 203.52L1370 151.25L1380 177.54L1390 241.28L1400 267.4L1410 302.75L1420 346.2L1430 296.51L1440 319.77" stroke="#224b75" stroke-width="2"></path><path d="M0 526.32L10 511.5L20 512.98L30 528.26L40 461.51L50 525.03L60 484.05L70 499.94L80 464.88L90 522.91L100 460.08L110 529.38L120 479.85L130 488.4L140 537.28L150 541.78L160 548.83L170 489.49L180 537.4L190 487.05L200 529.27L210 522.52L220 487.26L230 535.56L240 523.04L250 465.73L260 529.65L270 467.11L280 482.35L290 514.2L300 525.8L310 509.31L320 447.08L330 481.32L340 513.86L350 552.36L360 544L370 557.75L380 527.22L390 527.61L400 475.57L410 497.95L420 500.47L430 533.77L440 531.36L450 517.57L460 471.13L470 507.7L480 549.11L490 479.39L500 454.02L510 460.32L520 398.43L530 441.85L540 500.34L550 522.43L560 460L570 499.81L580 510.88L590 533.83L600 515.09L610 522.62L620 470.51L630 512.47L640 485.98L650 540.29L660 531.37L670 540.09L680 552.3L690 531.29L700 492.53L710 505.61L720 514.69L730 485.13L740 544.96L750 489.05L760 525.02L770 526.8L780 507.94L790 493.06L800 512.87L810 485.32L820 460.89L830 463.15L840 430.2L850 366.5L860 337.55L870 280.1L880 330.39L890 262.8L900 235.7L910 206.43L920 232.2L930 248.87L940 303.78L950 278.33L960 267.08L970 268.58L980 323.26L990 271.78L1000 304.49L1010 293.48L1020 247.33L1030 243.95L1040 215.2L1050 175.75L1060 122.85L1070 84.16L1080 139.81L1090 165.43L1100 140.39L1110 174.88L1120 151.83L1130 214.42L1140 179.23L1150 155.47L1160 169.23L1170 196.52L1180 164.62L1190 181.92L1200 138.07L1210 149.5L1220 212.3L1230 164.44L1240 96.36L1250 85.05L1260 36.71L1270 50.75L1280 69.81L1290 92.64L1300 108.08L1310 163.91L1320 191.14L1330 216.29L1340 190.9L1350 214.8L1360 203.52L1370 151.25L1380 177.54L1390 241.28L1400 267.4L1410 302.75L1420 346.2L1430 296.51L1440 319.77L1440 560L0 560z" fill="url(#SvgjsLinearGradient1001)"></path></g><defs><mask id="SvgjsMask1000"><rect width="1440" height="560" fill="#ffffff"></rect></mask><linearGradient x1="50%" y1="0%" x2="50%" y2="100%" id="SvgjsLinearGradient1001"><stop stop-opacity="0.65" stop-color="#224b75" offset="0"></stop><stop stop-opacity="0" stop-color="#508dcc" offset="0.8"></stop></linearGradient></defs></svg>